<svg width="1198" height="514" viewBox="0 0 1198 514" fill="none" xmlns="http://www.w3.org/2000/svg">
<path d="M475.837 341.304V153.21H537.329C557.741 153.21 573.071 157.43 583.319 165.87C593.654 174.31 598.821 186.798 598.821 203.334C598.821 212.119 596.324 219.913 591.329 226.716C586.334 233.434 579.53 238.645 570.917 242.348C581.08 245.19 589.089 250.616 594.946 258.625C600.888 266.549 603.86 276.022 603.86 287.046C603.86 303.926 598.391 317.189 587.453 326.835C576.515 336.481 561.056 341.304 541.076 341.304H475.837ZM500.641 253.329V321.022H541.592C553.133 321.022 562.219 318.05 568.85 312.108C575.568 306.079 578.927 297.811 578.927 287.304C578.927 264.654 566.611 253.329 541.98 253.329H500.641ZM500.641 233.434H538.104C548.956 233.434 557.611 230.721 564.071 225.295C570.616 219.87 573.889 212.506 573.889 203.205C573.889 192.87 570.874 185.377 564.846 180.727C558.817 175.99 549.645 173.621 537.329 173.621H500.641V233.434ZM648.346 341.304H624.447V201.525H648.346V341.304ZM622.509 164.449C622.509 160.574 623.671 157.301 625.997 154.631C628.408 151.961 631.939 150.626 636.59 150.626C641.241 150.626 644.772 151.961 647.183 154.631C649.595 157.301 650.8 160.574 650.8 164.449C650.8 168.325 649.595 171.554 647.183 174.138C644.772 176.722 641.241 178.014 636.59 178.014C631.939 178.014 628.408 176.722 625.997 174.138C623.671 171.554 622.509 168.325 622.509 164.449ZM694.77 201.525L695.545 219.095C706.224 205.659 720.176 198.942 737.401 198.942C766.941 198.942 781.841 215.607 782.099 248.936V341.304H758.2V248.807C758.114 238.731 755.788 231.281 751.224 226.458C746.745 221.635 739.726 219.224 730.167 219.224C722.415 219.224 715.612 221.291 709.755 225.425C703.899 229.559 699.334 234.984 696.062 241.702V341.304H672.162V201.525H694.77ZM797.777 270.252C797.777 248.807 802.858 231.582 813.021 218.578C823.183 205.487 836.489 198.942 852.939 198.942C869.302 198.942 882.264 204.54 891.824 215.736V142.875H915.723V341.304H893.761L892.599 326.318C883.039 338.031 869.733 343.887 852.681 343.887C836.489 343.887 823.269 337.256 813.021 323.993C802.858 310.73 797.777 293.419 797.777 272.06V270.252ZM821.676 272.965C821.676 288.811 824.949 301.213 831.494 310.17C838.04 319.127 847.083 323.605 858.623 323.605C873.781 323.605 884.848 316.802 891.824 303.194V238.989C884.675 225.812 873.695 219.224 858.881 219.224C847.169 219.224 838.04 223.745 831.494 232.788C824.949 241.831 821.676 255.223 821.676 272.965ZM996.381 343.887C977.434 343.887 962.018 337.686 950.133 325.285C938.248 312.797 932.305 296.132 932.305 275.29V270.898C932.305 257.032 934.932 244.673 940.185 233.822C945.525 222.884 952.932 214.358 962.405 208.243C971.965 202.042 982.3 198.942 993.41 198.942C1011.58 198.942 1025.71 204.927 1035.78 216.898C1045.86 228.87 1050.9 246.008 1050.9 268.314V278.261H956.204C956.549 292.041 960.554 303.194 968.219 311.72C975.97 320.16 985.788 324.38 997.673 324.38C1006.11 324.38 1013.26 322.658 1019.12 319.213C1024.97 315.768 1030.1 311.204 1034.49 305.519L1049.09 316.888C1037.38 334.887 1019.81 343.887 996.381 343.887ZM993.41 218.578C983.764 218.578 975.668 222.109 969.123 229.171C962.577 236.147 958.53 245.965 956.979 258.625H1027V256.817C1026.31 244.673 1023.04 235.286 1017.18 228.654C1011.32 221.937 1003.4 218.578 993.41 218.578ZM1057.79 270.123C1057.79 256.429 1060.46 244.113 1065.8 233.176C1071.23 222.238 1078.72 213.798 1088.28 207.855C1097.92 201.913 1108.9 198.942 1121.22 198.942C1140.25 198.942 1155.63 205.53 1167.34 218.707C1179.14 231.884 1185.04 249.41 1185.04 271.285V272.965C1185.04 286.572 1182.41 298.802 1177.16 309.653C1171.99 320.419 1164.54 328.816 1154.81 334.844C1145.16 340.873 1134.05 343.887 1121.48 343.887C1102.53 343.887 1087.16 337.299 1075.36 324.122C1063.65 310.945 1057.79 293.505 1057.79 271.802V270.123ZM1081.82 272.965C1081.82 288.467 1085.39 300.912 1092.54 310.299C1099.78 319.687 1109.42 324.38 1121.48 324.38C1133.62 324.38 1143.27 319.644 1150.42 310.17C1157.56 300.61 1161.14 287.261 1161.14 270.123C1161.14 254.793 1157.48 242.391 1150.16 232.917C1142.92 223.358 1133.28 218.578 1121.22 218.578C1109.42 218.578 1099.9 223.271 1092.67 232.659C1085.44 242.046 1081.82 255.482 1081.82 272.965Z" fill="white"/>
<path d="M319.715 160.117C339.697 10.007 199.822 -0.000610797 159.857 0C119.893 0.000610853 5.94268e-05 35.6631 1.82852e-05 160.117V320.234H159.857C159.857 320.234 299.733 310.227 319.715 160.117Z" fill="#79317E"/>
<path d="M393.389 341.639C414.908 180.241 264.271 169.481 221.231 169.482C178.192 169.482 49.0738 207.827 49.0738 341.639V513.797H221.231C221.231 513.797 371.869 503.037 393.389 341.639Z" fill="#FFB715"/>
<path fill-rule="evenodd" clip-rule="evenodd" d="M314.604 186.743C278.431 171.486 239.808 169.482 221.231 169.482C180.58 169.483 63.1397 203.689 50.23 320.234H159.858C159.858 320.234 282.735 311.443 314.604 186.743Z" fill="#E05636"/>
</svg>
